<mxfile host="Electron" agent="Mozilla/5.0 (Windows NT 10.0; Win64; x64) AppleWebKit/537.36 (KHTML, like Gecko) draw.io/26.1.1 Chrome/132.0.6834.210 Electron/34.3.3 Safari/537.36" version="26.1.1">
  <diagram name="ページ1" id="u6jA_61jbAYdFf_GWUjm">
    <mxGraphModel dx="1188" dy="728" grid="1" gridSize="10" guides="1" tooltips="1" connect="1" arrows="1" fold="1" page="0" pageScale="1" pageWidth="827" pageHeight="1169" math="0" shadow="0">
      <root>
        <mxCell id="0" />
        <mxCell id="1" parent="0" />
        <mxCell id="ILgfrZimDDbZP_ykygF1-1" value="利用者" style="rounded=0;whiteSpace=wrap;html=1;" parent="1" vertex="1">
          <mxGeometry x="-320" y="-5" width="80" height="40" as="geometry" />
        </mxCell>
        <mxCell id="ILgfrZimDDbZP_ykygF1-2" value="図書カード" style="rounded=0;whiteSpace=wrap;html=1;" parent="1" vertex="1">
          <mxGeometry x="-330" y="90" width="100" height="50" as="geometry" />
        </mxCell>
        <mxCell id="ILgfrZimDDbZP_ykygF1-3" value="ID" style="rounded=0;whiteSpace=wrap;html=1;" parent="1" vertex="1">
          <mxGeometry x="-310" y="230" width="60" height="30" as="geometry" />
        </mxCell>
        <mxCell id="ILgfrZimDDbZP_ykygF1-7" value="" style="endArrow=diamondThin;endFill=0;endSize=24;html=1;rounded=0;fontSize=12;curved=1;exitX=0.5;exitY=0;exitDx=0;exitDy=0;entryX=0.5;entryY=1;entryDx=0;entryDy=0;" parent="1" source="ILgfrZimDDbZP_ykygF1-3" target="ILgfrZimDDbZP_ykygF1-2" edge="1">
          <mxGeometry width="160" relative="1" as="geometry">
            <mxPoint x="-310" y="160" as="sourcePoint" />
            <mxPoint x="-150" y="160" as="targetPoint" />
          </mxGeometry>
        </mxCell>
        <mxCell id="ILgfrZimDDbZP_ykygF1-11" value="" style="endArrow=diamondThin;endFill=0;endSize=24;html=1;rounded=0;fontSize=12;curved=1;" parent="1" source="ILgfrZimDDbZP_ykygF1-2" target="ILgfrZimDDbZP_ykygF1-1" edge="1">
          <mxGeometry width="160" relative="1" as="geometry">
            <mxPoint x="-210" y="190" as="sourcePoint" />
            <mxPoint x="-210" y="140" as="targetPoint" />
          </mxGeometry>
        </mxCell>
        <mxCell id="ILgfrZimDDbZP_ykygF1-13" value="氏名" style="rounded=0;whiteSpace=wrap;html=1;" parent="1" vertex="1">
          <mxGeometry x="-470" y="140" width="60" height="30" as="geometry" />
        </mxCell>
        <mxCell id="ILgfrZimDDbZP_ykygF1-14" value="住所" style="rounded=0;whiteSpace=wrap;html=1;" parent="1" vertex="1">
          <mxGeometry x="-470" y="170" width="60" height="30" as="geometry" />
        </mxCell>
        <mxCell id="ILgfrZimDDbZP_ykygF1-15" value="電話番号" style="rounded=0;whiteSpace=wrap;html=1;" parent="1" vertex="1">
          <mxGeometry x="-470" y="200" width="60" height="30" as="geometry" />
        </mxCell>
        <mxCell id="ILgfrZimDDbZP_ykygF1-16" value="メールアドレス" style="rounded=0;whiteSpace=wrap;html=1;" parent="1" vertex="1">
          <mxGeometry x="-470" y="230" width="110" height="30" as="geometry" />
        </mxCell>
        <mxCell id="ILgfrZimDDbZP_ykygF1-17" value="パスワード" style="rounded=0;whiteSpace=wrap;html=1;" parent="1" vertex="1">
          <mxGeometry x="-240" y="190" width="60" height="30" as="geometry" />
        </mxCell>
        <mxCell id="ILgfrZimDDbZP_ykygF1-18" value="貸し出し予約" style="whiteSpace=wrap;html=1;" parent="1" vertex="1">
          <mxGeometry x="-520" y="-60" width="80" height="30" as="geometry" />
        </mxCell>
        <mxCell id="ILgfrZimDDbZP_ykygF1-19" value="貸し出し期限" style="whiteSpace=wrap;html=1;" parent="1" vertex="1">
          <mxGeometry x="-730" y="180" width="100" height="30" as="geometry" />
        </mxCell>
        <mxCell id="ILgfrZimDDbZP_ykygF1-20" value="貸し出し状況" style="whiteSpace=wrap;html=1;" parent="1" vertex="1">
          <mxGeometry x="-180" y="230" width="80" height="30" as="geometry" />
        </mxCell>
        <mxCell id="ILgfrZimDDbZP_ykygF1-21" value="どこの棚にあるか" style="whiteSpace=wrap;html=1;" parent="1" vertex="1">
          <mxGeometry x="10" y="120" width="80" height="30" as="geometry" />
        </mxCell>
        <mxCell id="ILgfrZimDDbZP_ykygF1-22" value="図書" style="whiteSpace=wrap;html=1;" parent="1" vertex="1">
          <mxGeometry x="-20" width="70" height="30" as="geometry" />
        </mxCell>
        <mxCell id="ILgfrZimDDbZP_ykygF1-24" value="" style="endArrow=diamondThin;endFill=0;endSize=24;html=1;rounded=0;fontSize=12;curved=1;entryX=0;entryY=0.5;entryDx=0;entryDy=0;exitX=1;exitY=0.5;exitDx=0;exitDy=0;" parent="1" source="ILgfrZimDDbZP_ykygF1-1" target="ILgfrZimDDbZP_ykygF1-22" edge="1">
          <mxGeometry width="160" relative="1" as="geometry">
            <mxPoint x="-220" y="14.5" as="sourcePoint" />
            <mxPoint x="-60" y="14.5" as="targetPoint" />
          </mxGeometry>
        </mxCell>
        <mxCell id="ILgfrZimDDbZP_ykygF1-25" value="検索" style="text;html=1;align=center;verticalAlign=middle;resizable=0;points=[];autosize=1;strokeColor=none;fillColor=none;fontSize=16;" parent="1" vertex="1">
          <mxGeometry x="-170" y="-10" width="60" height="30" as="geometry" />
        </mxCell>
        <mxCell id="ILgfrZimDDbZP_ykygF1-28" value="書名" style="whiteSpace=wrap;html=1;" parent="1" vertex="1">
          <mxGeometry x="-40" y="80" width="50" height="30" as="geometry" />
        </mxCell>
        <mxCell id="ILgfrZimDDbZP_ykygF1-29" value="著者" style="whiteSpace=wrap;html=1;" parent="1" vertex="1">
          <mxGeometry x="60" y="80" width="50" height="30" as="geometry" />
        </mxCell>
        <mxCell id="ILgfrZimDDbZP_ykygF1-31" value="" style="endArrow=diamondThin;endFill=0;endSize=24;html=1;rounded=0;fontSize=12;curved=1;entryX=0.25;entryY=1;entryDx=0;entryDy=0;exitX=0.4;exitY=0;exitDx=0;exitDy=0;exitPerimeter=0;" parent="1" source="ILgfrZimDDbZP_ykygF1-28" target="ILgfrZimDDbZP_ykygF1-22" edge="1">
          <mxGeometry width="160" relative="1" as="geometry">
            <mxPoint x="10" y="80" as="sourcePoint" />
            <mxPoint x="165" y="120" as="targetPoint" />
          </mxGeometry>
        </mxCell>
        <mxCell id="ILgfrZimDDbZP_ykygF1-34" value="" style="endArrow=diamondThin;endFill=0;endSize=24;html=1;rounded=0;fontSize=12;curved=1;entryX=0.75;entryY=1;entryDx=0;entryDy=0;exitX=0.5;exitY=0;exitDx=0;exitDy=0;" parent="1" source="ILgfrZimDDbZP_ykygF1-29" target="ILgfrZimDDbZP_ykygF1-22" edge="1">
          <mxGeometry width="160" relative="1" as="geometry">
            <mxPoint x="-50" y="190" as="sourcePoint" />
            <mxPoint x="110" y="190" as="targetPoint" />
          </mxGeometry>
        </mxCell>
        <mxCell id="ILgfrZimDDbZP_ykygF1-35" value="" style="endArrow=diamondThin;endFill=0;endSize=24;html=1;rounded=0;fontSize=12;curved=1;entryX=0;entryY=0.75;entryDx=0;entryDy=0;exitX=1;exitY=0.25;exitDx=0;exitDy=0;" parent="1" source="ILgfrZimDDbZP_ykygF1-13" target="ILgfrZimDDbZP_ykygF1-2" edge="1">
          <mxGeometry width="160" relative="1" as="geometry">
            <mxPoint x="-410" y="80" as="sourcePoint" />
            <mxPoint x="-320" y="190" as="targetPoint" />
          </mxGeometry>
        </mxCell>
        <mxCell id="ILgfrZimDDbZP_ykygF1-37" value="" style="endArrow=diamondThin;endFill=0;endSize=24;html=1;rounded=0;fontSize=12;curved=1;entryX=0;entryY=1;entryDx=0;entryDy=0;exitX=1;exitY=0.25;exitDx=0;exitDy=0;" parent="1" source="ILgfrZimDDbZP_ykygF1-14" target="ILgfrZimDDbZP_ykygF1-2" edge="1">
          <mxGeometry width="160" relative="1" as="geometry">
            <mxPoint x="-480" y="190" as="sourcePoint" />
            <mxPoint x="-320" y="190" as="targetPoint" />
          </mxGeometry>
        </mxCell>
        <mxCell id="ILgfrZimDDbZP_ykygF1-39" value="" style="endArrow=diamondThin;endFill=0;endSize=24;html=1;rounded=0;fontSize=12;curved=1;entryX=0.177;entryY=1.007;entryDx=0;entryDy=0;exitX=1;exitY=0.5;exitDx=0;exitDy=0;entryPerimeter=0;" parent="1" source="ILgfrZimDDbZP_ykygF1-15" target="ILgfrZimDDbZP_ykygF1-2" edge="1">
          <mxGeometry width="160" relative="1" as="geometry">
            <mxPoint x="-480" y="190" as="sourcePoint" />
            <mxPoint x="-320" y="190" as="targetPoint" />
          </mxGeometry>
        </mxCell>
        <mxCell id="ILgfrZimDDbZP_ykygF1-41" value="" style="endArrow=diamondThin;endFill=0;endSize=24;html=1;rounded=0;fontSize=12;curved=1;entryX=0.5;entryY=1;entryDx=0;entryDy=0;exitX=0.404;exitY=-0.033;exitDx=0;exitDy=0;exitPerimeter=0;" parent="1" source="ILgfrZimDDbZP_ykygF1-21" target="ILgfrZimDDbZP_ykygF1-22" edge="1">
          <mxGeometry width="160" relative="1" as="geometry">
            <mxPoint x="-150" y="190" as="sourcePoint" />
            <mxPoint x="10" y="190" as="targetPoint" />
          </mxGeometry>
        </mxCell>
        <mxCell id="ILgfrZimDDbZP_ykygF1-43" value="" style="endArrow=diamondThin;endFill=0;endSize=24;html=1;rounded=0;fontSize=12;curved=1;entryX=0.75;entryY=1;entryDx=0;entryDy=0;exitX=0.5;exitY=0;exitDx=0;exitDy=0;" parent="1" source="ILgfrZimDDbZP_ykygF1-17" target="ILgfrZimDDbZP_ykygF1-2" edge="1">
          <mxGeometry width="160" relative="1" as="geometry">
            <mxPoint x="-150" y="190" as="sourcePoint" />
            <mxPoint x="10" y="190" as="targetPoint" />
          </mxGeometry>
        </mxCell>
        <mxCell id="ILgfrZimDDbZP_ykygF1-44" value="" style="endArrow=diamondThin;endFill=0;endSize=24;html=1;rounded=0;fontSize=12;curved=1;entryX=0.377;entryY=0.98;entryDx=0;entryDy=0;exitX=0.75;exitY=0;exitDx=0;exitDy=0;entryPerimeter=0;" parent="1" source="ILgfrZimDDbZP_ykygF1-16" target="ILgfrZimDDbZP_ykygF1-2" edge="1">
          <mxGeometry width="160" relative="1" as="geometry">
            <mxPoint x="-400" y="190" as="sourcePoint" />
            <mxPoint x="-240" y="190" as="targetPoint" />
          </mxGeometry>
        </mxCell>
        <mxCell id="ILgfrZimDDbZP_ykygF1-48" value="借りている本" style="whiteSpace=wrap;html=1;" parent="1" vertex="1">
          <mxGeometry x="-610" y="100" width="90" height="30" as="geometry" />
        </mxCell>
        <mxCell id="ILgfrZimDDbZP_ykygF1-49" value="" style="endArrow=diamondThin;endFill=0;endSize=24;html=1;rounded=0;fontSize=12;curved=1;entryX=0;entryY=0.5;entryDx=0;entryDy=0;exitX=1;exitY=0.5;exitDx=0;exitDy=0;" parent="1" source="ILgfrZimDDbZP_ykygF1-48" target="ILgfrZimDDbZP_ykygF1-2" edge="1">
          <mxGeometry width="160" relative="1" as="geometry">
            <mxPoint x="-600" y="70" as="sourcePoint" />
            <mxPoint x="-440" y="70" as="targetPoint" />
          </mxGeometry>
        </mxCell>
        <mxCell id="ILgfrZimDDbZP_ykygF1-50" value="書名" style="whiteSpace=wrap;html=1;" parent="1" vertex="1">
          <mxGeometry x="-730" y="150" width="50" height="30" as="geometry" />
        </mxCell>
        <mxCell id="ILgfrZimDDbZP_ykygF1-51" value="著者" style="whiteSpace=wrap;html=1;" parent="1" vertex="1">
          <mxGeometry x="-680" y="150" width="50" height="30" as="geometry" />
        </mxCell>
        <mxCell id="ILgfrZimDDbZP_ykygF1-54" value="" style="endArrow=diamondThin;endFill=0;endSize=24;html=1;rounded=0;fontSize=12;curved=1;exitX=1;exitY=0;exitDx=0;exitDy=0;entryX=0.159;entryY=0.922;entryDx=0;entryDy=0;entryPerimeter=0;" parent="1" source="ILgfrZimDDbZP_ykygF1-51" target="ILgfrZimDDbZP_ykygF1-48" edge="1">
          <mxGeometry width="160" relative="1" as="geometry">
            <mxPoint x="-610" y="70" as="sourcePoint" />
            <mxPoint x="-450" y="70" as="targetPoint" />
          </mxGeometry>
        </mxCell>
        <mxCell id="ILgfrZimDDbZP_ykygF1-55" value="" style="endArrow=diamondThin;endFill=0;endSize=24;html=1;rounded=0;fontSize=12;curved=1;exitX=0.75;exitY=0;exitDx=0;exitDy=0;entryX=0;entryY=0.5;entryDx=0;entryDy=0;" parent="1" source="ILgfrZimDDbZP_ykygF1-50" target="ILgfrZimDDbZP_ykygF1-48" edge="1">
          <mxGeometry width="160" relative="1" as="geometry">
            <mxPoint x="-610" y="70" as="sourcePoint" />
            <mxPoint x="-450" y="70" as="targetPoint" />
          </mxGeometry>
        </mxCell>
        <mxCell id="ILgfrZimDDbZP_ykygF1-56" value="" style="endArrow=diamondThin;endFill=0;endSize=24;html=1;rounded=0;fontSize=12;curved=1;exitX=1;exitY=0.75;exitDx=0;exitDy=0;entryX=0.5;entryY=1;entryDx=0;entryDy=0;" parent="1" source="ILgfrZimDDbZP_ykygF1-19" target="ILgfrZimDDbZP_ykygF1-48" edge="1">
          <mxGeometry width="160" relative="1" as="geometry">
            <mxPoint x="-610" y="70" as="sourcePoint" />
            <mxPoint x="-450" y="70" as="targetPoint" />
          </mxGeometry>
        </mxCell>
      </root>
    </mxGraphModel>
  </diagram>
</mxfile>
